<mxfile host="app.diagrams.net" agent="Mozilla/5.0 (Windows NT 10.0; Win64; x64) AppleWebKit/537.36 (KHTML, like Gecko) Chrome/132.0.0.0 Safari/537.36 Edg/132.0.0.0" version="26.0.14">
  <diagram name="Page-1" id="97916047-d0de-89f5-080d-49f4d83e522f">
    <mxGraphModel dx="2037" dy="1067" grid="1" gridSize="10" guides="1" tooltips="1" connect="1" arrows="1" fold="1" page="1" pageScale="1.5" pageWidth="1169" pageHeight="827" background="none" math="0" shadow="0">
      <root>
        <mxCell id="0" />
        <mxCell id="1" parent="0" />
        <mxCell id="nU6p1UG-6rYGhFWLCgA0-63" style="edgeStyle=orthogonalEdgeStyle;rounded=0;orthogonalLoop=1;jettySize=auto;html=1;exitX=0.5;exitY=1;exitDx=0;exitDy=0;entryX=0.5;entryY=0;entryDx=0;entryDy=0;" edge="1" parent="1" source="nU6p1UG-6rYGhFWLCgA0-56" target="nU6p1UG-6rYGhFWLCgA0-57">
          <mxGeometry relative="1" as="geometry" />
        </mxCell>
        <mxCell id="nU6p1UG-6rYGhFWLCgA0-65" style="edgeStyle=orthogonalEdgeStyle;rounded=0;orthogonalLoop=1;jettySize=auto;html=1;exitX=0.5;exitY=1;exitDx=0;exitDy=0;entryX=0.5;entryY=0;entryDx=0;entryDy=0;" edge="1" parent="1" source="nU6p1UG-6rYGhFWLCgA0-56" target="nU6p1UG-6rYGhFWLCgA0-58">
          <mxGeometry relative="1" as="geometry" />
        </mxCell>
        <mxCell id="nU6p1UG-6rYGhFWLCgA0-66" style="edgeStyle=orthogonalEdgeStyle;rounded=0;orthogonalLoop=1;jettySize=auto;html=1;exitX=0.5;exitY=1;exitDx=0;exitDy=0;entryX=0.5;entryY=0;entryDx=0;entryDy=0;" edge="1" parent="1" source="nU6p1UG-6rYGhFWLCgA0-56" target="nU6p1UG-6rYGhFWLCgA0-62">
          <mxGeometry relative="1" as="geometry" />
        </mxCell>
        <mxCell id="nU6p1UG-6rYGhFWLCgA0-67" style="edgeStyle=orthogonalEdgeStyle;rounded=0;orthogonalLoop=1;jettySize=auto;html=1;exitX=0.5;exitY=1;exitDx=0;exitDy=0;entryX=0.5;entryY=0;entryDx=0;entryDy=0;" edge="1" parent="1" source="nU6p1UG-6rYGhFWLCgA0-56" target="nU6p1UG-6rYGhFWLCgA0-60">
          <mxGeometry relative="1" as="geometry" />
        </mxCell>
        <mxCell id="nU6p1UG-6rYGhFWLCgA0-68" style="edgeStyle=orthogonalEdgeStyle;rounded=0;orthogonalLoop=1;jettySize=auto;html=1;exitX=0.5;exitY=1;exitDx=0;exitDy=0;" edge="1" parent="1" source="nU6p1UG-6rYGhFWLCgA0-56" target="nU6p1UG-6rYGhFWLCgA0-59">
          <mxGeometry relative="1" as="geometry" />
        </mxCell>
        <mxCell id="nU6p1UG-6rYGhFWLCgA0-69" style="edgeStyle=orthogonalEdgeStyle;rounded=0;orthogonalLoop=1;jettySize=auto;html=1;exitX=0.5;exitY=1;exitDx=0;exitDy=0;" edge="1" parent="1" source="nU6p1UG-6rYGhFWLCgA0-56" target="nU6p1UG-6rYGhFWLCgA0-61">
          <mxGeometry relative="1" as="geometry" />
        </mxCell>
        <mxCell id="nU6p1UG-6rYGhFWLCgA0-56" value="Applications" style="rounded=1;whiteSpace=wrap;html=1;fillColor=#f8cecc;strokeColor=#b85450;fontSize=16;" vertex="1" parent="1">
          <mxGeometry x="728.7804878048779" y="40" width="148.29268292682926" height="53.07692307692308" as="geometry" />
        </mxCell>
        <mxCell id="nU6p1UG-6rYGhFWLCgA0-99" style="edgeStyle=orthogonalEdgeStyle;rounded=0;orthogonalLoop=1;jettySize=auto;html=1;exitX=0.5;exitY=1;exitDx=0;exitDy=0;entryX=0.5;entryY=0;entryDx=0;entryDy=0;" edge="1" parent="1" source="nU6p1UG-6rYGhFWLCgA0-57" target="nU6p1UG-6rYGhFWLCgA0-72">
          <mxGeometry relative="1" as="geometry" />
        </mxCell>
        <mxCell id="nU6p1UG-6rYGhFWLCgA0-100" style="edgeStyle=orthogonalEdgeStyle;rounded=0;orthogonalLoop=1;jettySize=auto;html=1;exitX=0.5;exitY=1;exitDx=0;exitDy=0;entryX=0.5;entryY=0;entryDx=0;entryDy=0;" edge="1" parent="1" source="nU6p1UG-6rYGhFWLCgA0-57" target="nU6p1UG-6rYGhFWLCgA0-73">
          <mxGeometry relative="1" as="geometry" />
        </mxCell>
        <mxCell id="nU6p1UG-6rYGhFWLCgA0-57" value="Predict treatment outcomes" style="rounded=1;whiteSpace=wrap;html=1;fillColor=#dae8fc;strokeColor=#6c8ebf;fontSize=16;" vertex="1" parent="1">
          <mxGeometry x="132.6829268292683" y="163.84615384615387" width="148.29268292682926" height="53.07692307692308" as="geometry" />
        </mxCell>
        <mxCell id="nU6p1UG-6rYGhFWLCgA0-93" style="edgeStyle=orthogonalEdgeStyle;rounded=0;orthogonalLoop=1;jettySize=auto;html=1;exitX=0.5;exitY=1;exitDx=0;exitDy=0;entryX=0.5;entryY=0;entryDx=0;entryDy=0;" edge="1" parent="1" source="nU6p1UG-6rYGhFWLCgA0-58" target="nU6p1UG-6rYGhFWLCgA0-89">
          <mxGeometry relative="1" as="geometry" />
        </mxCell>
        <mxCell id="nU6p1UG-6rYGhFWLCgA0-58" value="Estimate CATE" style="rounded=1;whiteSpace=wrap;html=1;fillColor=#dae8fc;strokeColor=#6c8ebf;fontSize=16;" vertex="1" parent="1">
          <mxGeometry x="395.12195121951214" y="163.84615384615387" width="148.29268292682926" height="53.07692307692308" as="geometry" />
        </mxCell>
        <mxCell id="nU6p1UG-6rYGhFWLCgA0-80" style="edgeStyle=orthogonalEdgeStyle;rounded=0;orthogonalLoop=1;jettySize=auto;html=1;exitX=0.5;exitY=1;exitDx=0;exitDy=0;entryX=0.5;entryY=0;entryDx=0;entryDy=0;" edge="1" parent="1" source="nU6p1UG-6rYGhFWLCgA0-59" target="nU6p1UG-6rYGhFWLCgA0-74">
          <mxGeometry relative="1" as="geometry" />
        </mxCell>
        <mxCell id="nU6p1UG-6rYGhFWLCgA0-81" style="edgeStyle=orthogonalEdgeStyle;rounded=0;orthogonalLoop=1;jettySize=auto;html=1;exitX=0.5;exitY=1;exitDx=0;exitDy=0;entryX=0.5;entryY=0;entryDx=0;entryDy=0;" edge="1" parent="1" source="nU6p1UG-6rYGhFWLCgA0-59" target="nU6p1UG-6rYGhFWLCgA0-75">
          <mxGeometry relative="1" as="geometry" />
        </mxCell>
        <mxCell id="nU6p1UG-6rYGhFWLCgA0-82" style="edgeStyle=orthogonalEdgeStyle;rounded=0;orthogonalLoop=1;jettySize=auto;html=1;exitX=0.5;exitY=1;exitDx=0;exitDy=0;" edge="1" parent="1" source="nU6p1UG-6rYGhFWLCgA0-59" target="nU6p1UG-6rYGhFWLCgA0-76">
          <mxGeometry relative="1" as="geometry" />
        </mxCell>
        <mxCell id="nU6p1UG-6rYGhFWLCgA0-59" value="Identify subgroups" style="rounded=1;whiteSpace=wrap;html=1;fillColor=#dae8fc;strokeColor=#6c8ebf;fontSize=16;" vertex="1" parent="1">
          <mxGeometry x="1426.8280487804877" y="163.84615384615387" width="148.29268292682926" height="53.07692307692308" as="geometry" />
        </mxCell>
        <mxCell id="nU6p1UG-6rYGhFWLCgA0-95" style="edgeStyle=orthogonalEdgeStyle;rounded=0;orthogonalLoop=1;jettySize=auto;html=1;exitX=0.5;exitY=1;exitDx=0;exitDy=0;" edge="1" parent="1" source="nU6p1UG-6rYGhFWLCgA0-60" target="nU6p1UG-6rYGhFWLCgA0-91">
          <mxGeometry relative="1" as="geometry" />
        </mxCell>
        <mxCell id="nU6p1UG-6rYGhFWLCgA0-60" value="Identify ITR / DTR" style="rounded=1;whiteSpace=wrap;html=1;fillColor=#dae8fc;strokeColor=#6c8ebf;fontSize=16;" vertex="1" parent="1">
          <mxGeometry x="837.2195121951219" y="163.84615384615387" width="148.29268292682926" height="53.07692307692308" as="geometry" />
        </mxCell>
        <mxCell id="nU6p1UG-6rYGhFWLCgA0-101" style="edgeStyle=orthogonalEdgeStyle;rounded=0;orthogonalLoop=1;jettySize=auto;html=1;exitX=0.5;exitY=1;exitDx=0;exitDy=0;entryX=0.5;entryY=0;entryDx=0;entryDy=0;" edge="1" parent="1" source="nU6p1UG-6rYGhFWLCgA0-61" target="nU6p1UG-6rYGhFWLCgA0-90">
          <mxGeometry relative="1" as="geometry" />
        </mxCell>
        <mxCell id="nU6p1UG-6rYGhFWLCgA0-61" value="Identify biomarkers" style="rounded=1;whiteSpace=wrap;html=1;fillColor=#dae8fc;strokeColor=#6c8ebf;fontSize=16;" vertex="1" parent="1">
          <mxGeometry x="1062.4390243902437" y="163.84615384615387" width="148.29268292682926" height="53.07692307692308" as="geometry" />
        </mxCell>
        <mxCell id="nU6p1UG-6rYGhFWLCgA0-94" style="edgeStyle=orthogonalEdgeStyle;rounded=0;orthogonalLoop=1;jettySize=auto;html=1;exitX=0.5;exitY=1;exitDx=0;exitDy=0;entryX=0.5;entryY=0;entryDx=0;entryDy=0;" edge="1" parent="1" source="nU6p1UG-6rYGhFWLCgA0-62" target="nU6p1UG-6rYGhFWLCgA0-92">
          <mxGeometry relative="1" as="geometry" />
        </mxCell>
        <mxCell id="nU6p1UG-6rYGhFWLCgA0-62" value="Estimate ATE" style="rounded=1;whiteSpace=wrap;html=1;fillColor=#dae8fc;strokeColor=#6c8ebf;fontSize=16;" vertex="1" parent="1">
          <mxGeometry x="617.560975609756" y="163.84615384615387" width="148.29268292682926" height="53.07692307692308" as="geometry" />
        </mxCell>
        <mxCell id="nU6p1UG-6rYGhFWLCgA0-84" style="edgeStyle=orthogonalEdgeStyle;rounded=0;orthogonalLoop=1;jettySize=auto;html=1;exitX=0.5;exitY=1;exitDx=0;exitDy=0;entryX=0.5;entryY=0;entryDx=0;entryDy=0;" edge="1" parent="1" source="nU6p1UG-6rYGhFWLCgA0-72" target="nU6p1UG-6rYGhFWLCgA0-83">
          <mxGeometry relative="1" as="geometry" />
        </mxCell>
        <mxCell id="nU6p1UG-6rYGhFWLCgA0-72" value="Personalised Advantage Index (PAI)" style="rounded=1;whiteSpace=wrap;html=1;fillColor=#d5e8d4;strokeColor=#82b366;fontSize=16;" vertex="1" parent="1">
          <mxGeometry x="40" y="309.99615384615385" width="148.29268292682926" height="53.07692307692308" as="geometry" />
        </mxCell>
        <mxCell id="nU6p1UG-6rYGhFWLCgA0-88" style="edgeStyle=orthogonalEdgeStyle;rounded=0;orthogonalLoop=1;jettySize=auto;html=1;exitX=0.5;exitY=1;exitDx=0;exitDy=0;entryX=0.5;entryY=0;entryDx=0;entryDy=0;" edge="1" parent="1" source="nU6p1UG-6rYGhFWLCgA0-73" target="nU6p1UG-6rYGhFWLCgA0-85">
          <mxGeometry relative="1" as="geometry" />
        </mxCell>
        <mxCell id="nU6p1UG-6rYGhFWLCgA0-73" value="Importance of treatment assignment in predictor" style="rounded=1;whiteSpace=wrap;html=1;fillColor=#d5e8d4;strokeColor=#82b366;fontSize=16;" vertex="1" parent="1">
          <mxGeometry x="216.09756097560972" y="309.99615384615385" width="148.29268292682926" height="53.07692307692308" as="geometry" />
        </mxCell>
        <mxCell id="nU6p1UG-6rYGhFWLCgA0-105" style="edgeStyle=orthogonalEdgeStyle;rounded=0;orthogonalLoop=1;jettySize=auto;html=1;exitX=0.5;exitY=1;exitDx=0;exitDy=0;entryX=0.5;entryY=0;entryDx=0;entryDy=0;" edge="1" parent="1" source="nU6p1UG-6rYGhFWLCgA0-74" target="nU6p1UG-6rYGhFWLCgA0-103">
          <mxGeometry relative="1" as="geometry" />
        </mxCell>
        <mxCell id="nU6p1UG-6rYGhFWLCgA0-74" value="Cluster baseline data&lt;span style=&quot;color: rgba(0, 0, 0, 0); font-family: monospace; font-size: 0px; text-align: start; text-wrap-mode: nowrap;&quot;&gt;%3CmxGraphModel%3E%3Croot%3E%3CmxCell%20id%3D%220%22%2F%3E%3CmxCell%20id%3D%221%22%20parent%3D%220%22%2F%3E%3CmxCell%20id%3D%222%22%20value%3D%22Importance%20of%20treatment%20assignment%20in%20predictor%22%20style%3D%22rounded%3D1%3BwhiteSpace%3Dwrap%3Bhtml%3D1%3BfillColor%3D%23d5e8d4%3BstrokeColor%3D%2382b366%3BfontSize%3D16%3B%22%20vertex%3D%221%22%20parent%3D%221%22%3E%3CmxGeometry%20x%3D%22250%22%20y%3D%22390%22%20width%3D%22160%22%20height%3D%2260%22%20as%3D%22geometry%22%2F%3E%3C%2FmxCell%3E%3C%2Froot%3E%3C%2FmxGraphModel%3E&lt;/span&gt;" style="rounded=1;whiteSpace=wrap;html=1;fillColor=#d5e8d4;strokeColor=#82b366;fontSize=16;" vertex="1" parent="1">
          <mxGeometry x="1259.9987804878049" y="309.99615384615385" width="148.29268292682926" height="53.07692307692308" as="geometry" />
        </mxCell>
        <mxCell id="nU6p1UG-6rYGhFWLCgA0-108" style="edgeStyle=orthogonalEdgeStyle;rounded=0;orthogonalLoop=1;jettySize=auto;html=1;exitX=0.5;exitY=1;exitDx=0;exitDy=0;entryX=0.5;entryY=0;entryDx=0;entryDy=0;" edge="1" parent="1" source="nU6p1UG-6rYGhFWLCgA0-75" target="nU6p1UG-6rYGhFWLCgA0-107">
          <mxGeometry relative="1" as="geometry" />
        </mxCell>
        <mxCell id="nU6p1UG-6rYGhFWLCgA0-75" value="Cluster outcome data" style="rounded=1;whiteSpace=wrap;html=1;fillColor=#d5e8d4;strokeColor=#82b366;fontSize=16;" vertex="1" parent="1">
          <mxGeometry x="1426.8280487804877" y="309.99615384615385" width="148.29268292682926" height="53.07692307692308" as="geometry" />
        </mxCell>
        <mxCell id="nU6p1UG-6rYGhFWLCgA0-109" style="edgeStyle=orthogonalEdgeStyle;rounded=0;orthogonalLoop=1;jettySize=auto;html=1;exitX=0.5;exitY=1;exitDx=0;exitDy=0;entryX=0.5;entryY=0;entryDx=0;entryDy=0;" edge="1" parent="1" source="nU6p1UG-6rYGhFWLCgA0-76" target="nU6p1UG-6rYGhFWLCgA0-106">
          <mxGeometry relative="1" as="geometry" />
        </mxCell>
        <mxCell id="nU6p1UG-6rYGhFWLCgA0-76" value="Identify subgroups with HTE" style="rounded=1;whiteSpace=wrap;html=1;fillColor=#d5e8d4;strokeColor=#82b366;fontSize=16;" vertex="1" parent="1">
          <mxGeometry x="1593.6573170731706" y="309.99615384615385" width="148.29268292682926" height="53.07692307692308" as="geometry" />
        </mxCell>
        <mxCell id="nU6p1UG-6rYGhFWLCgA0-83" value="Examples" style="rounded=1;whiteSpace=wrap;html=1;fillColor=#fff2cc;strokeColor=#d6b656;fontSize=16;" vertex="1" parent="1">
          <mxGeometry x="40" y="446.9238461538462" width="148.29268292682926" height="53.07692307692308" as="geometry" />
        </mxCell>
        <mxCell id="nU6p1UG-6rYGhFWLCgA0-85" value="Examples" style="rounded=1;whiteSpace=wrap;html=1;fillColor=#fff2cc;strokeColor=#d6b656;fontSize=16;" vertex="1" parent="1">
          <mxGeometry x="216.09756097560972" y="446.92384615384617" width="148.29268292682926" height="53.07692307692308" as="geometry" />
        </mxCell>
        <mxCell id="nU6p1UG-6rYGhFWLCgA0-89" value="Examples" style="rounded=1;whiteSpace=wrap;html=1;fillColor=#fff2cc;strokeColor=#d6b656;fontSize=16;" vertex="1" parent="1">
          <mxGeometry x="395.12195121951214" y="446.92307692307696" width="148.29268292682926" height="53.07692307692308" as="geometry" />
        </mxCell>
        <mxCell id="nU6p1UG-6rYGhFWLCgA0-90" value="Examples" style="rounded=1;whiteSpace=wrap;html=1;fillColor=#fff2cc;strokeColor=#d6b656;fontSize=16;" vertex="1" parent="1">
          <mxGeometry x="1062.4390243902437" y="446.92307692307696" width="148.29268292682926" height="53.07692307692308" as="geometry" />
        </mxCell>
        <mxCell id="nU6p1UG-6rYGhFWLCgA0-91" value="Examples" style="rounded=1;whiteSpace=wrap;html=1;fillColor=#fff2cc;strokeColor=#d6b656;fontSize=16;" vertex="1" parent="1">
          <mxGeometry x="837.2195121951219" y="446.92307692307696" width="148.29268292682926" height="53.07692307692308" as="geometry" />
        </mxCell>
        <mxCell id="nU6p1UG-6rYGhFWLCgA0-92" value="Examples" style="rounded=1;whiteSpace=wrap;html=1;fillColor=#fff2cc;strokeColor=#d6b656;fontSize=16;" vertex="1" parent="1">
          <mxGeometry x="617.560975609756" y="446.92307692307696" width="148.29268292682926" height="53.07692307692308" as="geometry" />
        </mxCell>
        <mxCell id="nU6p1UG-6rYGhFWLCgA0-103" value="Examples" style="rounded=1;whiteSpace=wrap;html=1;fillColor=#fff2cc;strokeColor=#d6b656;fontSize=16;" vertex="1" parent="1">
          <mxGeometry x="1259.9990243902437" y="446.92307692307696" width="148.29268292682926" height="53.07692307692308" as="geometry" />
        </mxCell>
        <mxCell id="nU6p1UG-6rYGhFWLCgA0-106" value="Examples" style="rounded=1;whiteSpace=wrap;html=1;fillColor=#fff2cc;strokeColor=#d6b656;fontSize=16;" vertex="1" parent="1">
          <mxGeometry x="1593.6590243902438" y="446.92307692307696" width="148.29268292682926" height="53.07692307692308" as="geometry" />
        </mxCell>
        <mxCell id="nU6p1UG-6rYGhFWLCgA0-107" value="Examples" style="rounded=1;whiteSpace=wrap;html=1;fillColor=#fff2cc;strokeColor=#d6b656;fontSize=16;" vertex="1" parent="1">
          <mxGeometry x="1426.8290243902438" y="446.92307692307696" width="148.29268292682926" height="53.07692307692308" as="geometry" />
        </mxCell>
      </root>
    </mxGraphModel>
  </diagram>
</mxfile>
